<mxfile host="app.diagrams.net" modified="2021-12-21T12:42:34.750Z" agent="5.0 (Windows)" etag="MtXmMW3CXWjy4i8FfxXD" version="15.9.6" type="github">
  <diagram id="H2XXT-WdWfryleY7fu1X" name="Page-1">
    <mxGraphModel dx="1360" dy="764" grid="1" gridSize="10" guides="1" tooltips="1" connect="1" arrows="1" fold="1" page="1" pageScale="1" pageWidth="1169" pageHeight="827" math="0" shadow="0">
      <root>
        <mxCell id="0" />
        <mxCell id="1" parent="0" />
        <mxCell id="OPYg37eZWYAAYH3z6QWN-2" value="Resume" style="swimlane;fontStyle=1;align=center;verticalAlign=top;childLayout=stackLayout;horizontal=1;startSize=26;horizontalStack=0;resizeParent=1;resizeParentMax=0;resizeLast=0;collapsible=1;marginBottom=0;" parent="1" vertex="1">
          <mxGeometry x="37" y="90" width="220" height="150" as="geometry" />
        </mxCell>
        <mxCell id="OPYg37eZWYAAYH3z6QWN-3" value="- uuid: String&#xa;- fullName: String&#xa;- data: List&lt;Object&gt;&#xa;" style="text;strokeColor=none;fillColor=none;align=left;verticalAlign=top;spacingLeft=4;spacingRight=4;overflow=hidden;rotatable=0;points=[[0,0.5],[1,0.5]];portConstraint=eastwest;" parent="OPYg37eZWYAAYH3z6QWN-2" vertex="1">
          <mxGeometry y="26" width="220" height="74" as="geometry" />
        </mxCell>
        <mxCell id="OPYg37eZWYAAYH3z6QWN-4" value="" style="line;strokeWidth=1;fillColor=none;align=left;verticalAlign=middle;spacingTop=-1;spacingLeft=3;spacingRight=3;rotatable=0;labelPosition=right;points=[];portConstraint=eastwest;" parent="OPYg37eZWYAAYH3z6QWN-2" vertex="1">
          <mxGeometry y="100" width="220" height="8" as="geometry" />
        </mxCell>
        <mxCell id="OPYg37eZWYAAYH3z6QWN-5" value="constructors&#xa;getters" style="text;strokeColor=none;fillColor=none;align=left;verticalAlign=top;spacingLeft=4;spacingRight=4;overflow=hidden;rotatable=0;points=[[0,0.5],[1,0.5]];portConstraint=eastwest;" parent="OPYg37eZWYAAYH3z6QWN-2" vertex="1">
          <mxGeometry y="108" width="220" height="42" as="geometry" />
        </mxCell>
        <mxCell id="OPYg37eZWYAAYH3z6QWN-18" value="" style="endArrow=diamondThin;endFill=1;endSize=24;html=1;rounded=0;exitX=0;exitY=0.5;exitDx=0;exitDy=0;entryX=1;entryY=0.5;entryDx=0;entryDy=0;" parent="1" source="TxLTmfElA2wQhMG-NLe1-3" edge="1" target="OPYg37eZWYAAYH3z6QWN-3">
          <mxGeometry width="160" relative="1" as="geometry">
            <mxPoint x="347" y="120" as="sourcePoint" />
            <mxPoint x="107" y="240" as="targetPoint" />
            <Array as="points" />
          </mxGeometry>
        </mxCell>
        <mxCell id="OPYg37eZWYAAYH3z6QWN-19" value="" style="endArrow=diamondThin;endFill=1;endSize=24;html=1;rounded=0;exitX=0;exitY=0.5;exitDx=0;exitDy=0;entryX=1;entryY=0.77;entryDx=0;entryDy=0;entryPerimeter=0;" parent="1" edge="1" target="OPYg37eZWYAAYH3z6QWN-3" source="TxLTmfElA2wQhMG-NLe1-7">
          <mxGeometry width="160" relative="1" as="geometry">
            <mxPoint x="345.8599999999999" y="204.30200000000002" as="sourcePoint" />
            <mxPoint x="260" y="204" as="targetPoint" />
          </mxGeometry>
        </mxCell>
        <mxCell id="TxLTmfElA2wQhMG-NLe1-2" value="enum SectionType" style="swimlane;fontStyle=1;align=center;verticalAlign=top;childLayout=stackLayout;horizontal=1;startSize=26;horizontalStack=0;resizeParent=1;resizeParentMax=0;resizeLast=0;collapsible=1;marginBottom=0;" vertex="1" parent="1">
          <mxGeometry x="360" y="40" width="160" height="78" as="geometry" />
        </mxCell>
        <mxCell id="TxLTmfElA2wQhMG-NLe1-3" value="- title: String&#xa;- text: List&lt;String&gt;&#xa;" style="text;strokeColor=none;fillColor=none;align=left;verticalAlign=top;spacingLeft=4;spacingRight=4;overflow=hidden;rotatable=0;points=[[0,0.5],[1,0.5]];portConstraint=eastwest;" vertex="1" parent="TxLTmfElA2wQhMG-NLe1-2">
          <mxGeometry y="26" width="160" height="44" as="geometry" />
        </mxCell>
        <mxCell id="TxLTmfElA2wQhMG-NLe1-4" value="" style="line;strokeWidth=1;fillColor=none;align=left;verticalAlign=middle;spacingTop=-1;spacingLeft=3;spacingRight=3;rotatable=0;labelPosition=right;points=[];portConstraint=eastwest;" vertex="1" parent="TxLTmfElA2wQhMG-NLe1-2">
          <mxGeometry y="70" width="160" height="8" as="geometry" />
        </mxCell>
        <mxCell id="TxLTmfElA2wQhMG-NLe1-6" value="enum ContactType" style="swimlane;fontStyle=1;align=center;verticalAlign=top;childLayout=stackLayout;horizontal=1;startSize=26;horizontalStack=0;resizeParent=1;resizeParentMax=0;resizeLast=0;collapsible=1;marginBottom=0;" vertex="1" parent="1">
          <mxGeometry x="360" y="170" width="160" height="78" as="geometry" />
        </mxCell>
        <mxCell id="TxLTmfElA2wQhMG-NLe1-7" value="- type: String&#xa;- value: String" style="text;strokeColor=none;fillColor=none;align=left;verticalAlign=top;spacingLeft=4;spacingRight=4;overflow=hidden;rotatable=0;points=[[0,0.5],[1,0.5]];portConstraint=eastwest;" vertex="1" parent="TxLTmfElA2wQhMG-NLe1-6">
          <mxGeometry y="26" width="160" height="44" as="geometry" />
        </mxCell>
        <mxCell id="TxLTmfElA2wQhMG-NLe1-8" value="" style="line;strokeWidth=1;fillColor=none;align=left;verticalAlign=middle;spacingTop=-1;spacingLeft=3;spacingRight=3;rotatable=0;labelPosition=right;points=[];portConstraint=eastwest;" vertex="1" parent="TxLTmfElA2wQhMG-NLe1-6">
          <mxGeometry y="70" width="160" height="8" as="geometry" />
        </mxCell>
      </root>
    </mxGraphModel>
  </diagram>
</mxfile>
